<svg width="349" height="284" viewBox="0 0 349 284" fill="none" xmlns="http://www.w3.org/2000/svg">
<path d="M284 142C284 220.424 220.424 284 142 284C63.5756 284 0 220.424 0 142C0 63.5756 63.5756 0 142 0C220.424 0 284 63.5756 284 142ZM28.6054 142C28.6054 204.626 79.3739 255.395 142 255.395C204.626 255.395 255.395 204.626 255.395 142C255.395 79.3739 204.626 28.6054 142 28.6054C79.3739 28.6054 28.6054 79.3739 28.6054 142Z" fill="#034D8E"/>
<path d="M313.651 80H265L268.5 193H313.524C315.358 193 317.045 191.996 317.919 190.384L348.5 134L317.952 82.451C317.052 80.9317 315.417 80 313.651 80Z" fill="#034D8E"/>
</svg>
