<?xml version="1.0" encoding="utf-8"?>
<!-- Generator: Adobe Illustrator 24.1.1, SVG Export Plug-In . SVG Version: 6.00 Build 0)  -->
<svg version="1.1" id="Слой_1" xmlns="http://www.w3.org/2000/svg" xmlns:xlink="http://www.w3.org/1999/xlink" x="0px" y="0px"
	 viewBox="0 0 349 284" style="enable-background:new 0 0 349 284;" xml:space="preserve">
<style type="text/css">
	.st0{fill:#D8222E;}
</style>
<path class="st0" d="M284,142c0,78.4-63.6,142-142,142C63.6,284,0,220.4,0,142C0,63.6,63.6,0,142,0C220.4,0,284,63.6,284,142z
	 M28.6,142c0,62.6,50.8,113.4,113.4,113.4c62.6,0,113.4-50.8,113.4-113.4c0-62.6-50.8-113.4-113.4-113.4
	C79.4,28.6,28.6,79.4,28.6,142z"/>
<path class="st0" d="M313.7,80H265l3.5,113h45c1.8,0,3.5-1,4.4-2.6l30.6-56.4L318,82.5C317.1,80.9,315.4,80,313.7,80z"/>
</svg>
