<svg width="285" height="350" viewBox="0 0 285 350" fill="none" xmlns="http://www.w3.org/2000/svg">
<path d="M142.25 284.75C63.8256 284.75 0.25 221.174 0.25 142.75C0.25 64.3256 63.8256 0.75 142.25 0.75C220.674 0.75 284.25 64.3256 284.25 142.75C284.25 221.174 220.674 284.75 142.25 284.75ZM142.25 29.3554C79.6239 29.3554 28.8554 80.1239 28.8554 142.75C28.8554 205.376 79.6239 256.145 142.25 256.145C204.876 256.145 255.645 205.376 255.645 142.75C255.645 80.1239 204.876 29.3554 142.25 29.3554Z" fill="#D8222E"/>
<path d="M204.25 314.401V265.75L91.25 269.25V314.274C91.25 316.108 92.2541 317.795 93.8662 318.669L150.25 349.25L201.799 318.702C203.318 317.802 204.25 316.167 204.25 314.401Z" fill="#D8222E"/>
</svg>
