<svg width="652" height="232" viewBox="0 0 652 232" fill="none" xmlns="http://www.w3.org/2000/svg">
<rect x="156.5" y="2.5" width="288" height="26" fill="white" stroke="#D8222E"/>
<path d="M353.5 29V2H606L650 29.5L353.5 29Z" fill="#FDFDFD" stroke="#D8222E"/>
<path d="M184 29L156 2V29H184Z" fill="#E6E6E6" stroke="#D8222E"/>
<rect x="420" y="29" width="230" height="174" fill="#F3F3F3"/>
<path d="M38 65L2 29H452.5L495 65H38Z" fill="#F9F9F9" stroke="#034D8E"/>
<path d="M38 65L2 29V191L38 230V65Z" fill="#F9F9F9" stroke="#034D8E"/>
<rect x="38.5" y="65.5" width="457" height="164" fill="white" stroke="#034D8E"/>
<g filter="url(#filter0_di_89_3)">
<path d="M109.888 195.28C102.891 195.28 96.448 194.171 90.56 191.952C84.7573 189.648 79.68 186.448 75.328 182.352C70.976 178.171 67.6053 173.264 65.216 167.632C62.8267 162 61.632 155.856 61.632 149.2C61.632 142.544 62.8267 136.4 65.216 130.768C67.6053 125.136 70.976 120.272 75.328 116.176C79.7653 111.995 84.928 108.795 90.816 106.576C96.704 104.272 103.147 103.12 110.144 103.12C117.739 103.12 124.565 104.357 130.624 106.832C136.768 109.307 141.931 112.933 146.112 117.712L135.616 127.952C132.117 124.453 128.32 121.893 124.224 120.272C120.213 118.565 115.776 117.712 110.912 117.712C106.219 117.712 101.867 118.48 97.856 120.016C93.8453 121.552 90.3893 123.728 87.488 126.544C84.5867 129.36 82.3253 132.688 80.704 136.528C79.168 140.368 78.4 144.592 78.4 149.2C78.4 153.723 79.168 157.904 80.704 161.744C82.3253 165.584 84.5867 168.955 87.488 171.856C90.3893 174.672 93.8027 176.848 97.728 178.384C101.653 179.92 106.005 180.688 110.784 180.688C115.221 180.688 119.488 180.005 123.584 178.64C127.765 177.189 131.733 174.8 135.488 171.472L144.96 183.888C140.267 187.643 134.805 190.501 128.576 192.464C122.432 194.341 116.203 195.28 109.888 195.28ZM129.216 181.712V148.176H144.96V183.888L129.216 181.712ZM208.891 195.28C201.894 195.28 195.451 194.128 189.563 191.824C183.675 189.52 178.555 186.32 174.203 182.224C169.851 178.043 166.48 173.179 164.091 167.632C161.702 162 160.507 155.856 160.507 149.2C160.507 142.544 161.702 136.443 164.091 130.896C166.48 125.264 169.851 120.4 174.203 116.304C178.555 112.123 183.675 108.88 189.563 106.576C195.451 104.272 201.851 103.12 208.763 103.12C215.76 103.12 222.16 104.272 227.963 106.576C233.851 108.88 238.971 112.123 243.323 116.304C247.675 120.4 251.046 125.264 253.435 130.896C255.824 136.443 257.019 142.544 257.019 149.2C257.019 155.856 255.824 162 253.435 167.632C251.046 173.264 247.675 178.128 243.323 182.224C238.971 186.32 233.851 189.52 227.963 191.824C222.16 194.128 215.803 195.28 208.891 195.28ZM208.763 180.688C213.286 180.688 217.467 179.92 221.307 178.384C225.147 176.848 228.475 174.672 231.291 171.856C234.107 168.955 236.283 165.627 237.819 161.872C239.44 158.032 240.251 153.808 240.251 149.2C240.251 144.592 239.44 140.411 237.819 136.656C236.283 132.816 234.107 129.488 231.291 126.672C228.475 123.771 225.147 121.552 221.307 120.016C217.467 118.48 213.286 117.712 208.763 117.712C204.24 117.712 200.059 118.48 196.219 120.016C192.464 121.552 189.136 123.771 186.235 126.672C183.419 129.488 181.2 132.816 179.579 136.656C178.043 140.411 177.275 144.592 177.275 149.2C177.275 153.723 178.043 157.904 179.579 161.744C181.2 165.584 183.419 168.955 186.235 171.856C189.051 174.672 192.379 176.848 196.219 178.384C200.059 179.92 204.24 180.688 208.763 180.688ZM316.641 195.28C309.644 195.28 303.201 194.128 297.313 191.824C291.425 189.52 286.305 186.32 281.953 182.224C277.601 178.043 274.23 173.179 271.841 167.632C269.452 162 268.257 155.856 268.257 149.2C268.257 142.544 269.452 136.443 271.841 130.896C274.23 125.264 277.601 120.4 281.953 116.304C286.305 112.123 291.425 108.88 297.313 106.576C303.201 104.272 309.601 103.12 316.513 103.12C323.51 103.12 329.91 104.272 335.713 106.576C341.601 108.88 346.721 112.123 351.073 116.304C355.425 120.4 358.796 125.264 361.185 130.896C363.574 136.443 364.769 142.544 364.769 149.2C364.769 155.856 363.574 162 361.185 167.632C358.796 173.264 355.425 178.128 351.073 182.224C346.721 186.32 341.601 189.52 335.713 191.824C329.91 194.128 323.553 195.28 316.641 195.28ZM316.513 180.688C321.036 180.688 325.217 179.92 329.057 178.384C332.897 176.848 336.225 174.672 339.041 171.856C341.857 168.955 344.033 165.627 345.569 161.872C347.19 158.032 348.001 153.808 348.001 149.2C348.001 144.592 347.19 140.411 345.569 136.656C344.033 132.816 341.857 129.488 339.041 126.672C336.225 123.771 332.897 121.552 329.057 120.016C325.217 118.48 321.036 117.712 316.513 117.712C311.99 117.712 307.809 118.48 303.969 120.016C300.214 121.552 296.886 123.771 293.985 126.672C291.169 129.488 288.95 132.816 287.329 136.656C285.793 140.411 285.025 144.592 285.025 149.2C285.025 153.723 285.793 157.904 287.329 161.744C288.95 165.584 291.169 168.955 293.985 171.856C296.801 174.672 300.129 176.848 303.969 178.384C307.809 179.92 311.99 180.688 316.513 180.688ZM382.407 194V104.4H421.575C431.303 104.4 439.836 106.277 447.175 110.032C454.514 113.787 460.231 118.992 464.327 125.648C468.423 132.304 470.471 140.155 470.471 149.2C470.471 158.16 468.423 166.011 464.327 172.752C460.231 179.408 454.514 184.613 447.175 188.368C439.836 192.123 431.303 194 421.575 194H382.407ZM399.047 179.92H420.807C427.548 179.92 433.351 178.64 438.215 176.08C443.164 173.52 446.962 169.936 449.607 165.328C452.338 160.72 453.703 155.344 453.703 149.2C453.703 142.971 452.338 137.595 449.607 133.072C446.962 128.464 443.164 124.88 438.215 122.32C433.351 119.76 427.548 118.48 420.807 118.48H399.047V179.92Z" fill="#034D8E"/>
<path d="M90.56 191.952L90.191 192.881L90.1992 192.885L90.2074 192.888L90.56 191.952ZM75.328 182.352L74.6351 183.073L74.6426 183.08L75.328 182.352ZM65.216 167.632L66.1366 167.241L65.216 167.632ZM65.216 130.768L66.1366 131.159L65.216 130.768ZM75.328 116.176L76.0134 116.904L76.0138 116.904L75.328 116.176ZM90.816 106.576L91.1686 107.512L91.1804 107.507L90.816 106.576ZM130.624 106.832L130.246 107.758L130.25 107.76L130.624 106.832ZM146.112 117.712L146.81 118.428L147.488 117.766L146.865 117.053L146.112 117.712ZM135.616 127.952L134.909 128.659L135.607 129.358L136.314 128.668L135.616 127.952ZM124.224 120.272L123.832 121.192L123.844 121.197L123.856 121.202L124.224 120.272ZM97.856 120.016L98.2136 120.95L97.856 120.016ZM80.704 136.528L79.7828 136.139L79.7791 136.148L79.7755 136.157L80.704 136.528ZM80.704 161.744L79.7755 162.115L79.7791 162.124L79.7828 162.133L80.704 161.744ZM87.488 171.856L86.7809 172.563L86.7862 172.568L86.7915 172.574L87.488 171.856ZM97.728 178.384L98.0924 177.453L97.728 178.384ZM123.584 178.64L123.9 179.589L123.912 179.585L123.584 178.64ZM135.488 171.472L136.283 170.865L135.63 170.01L134.825 170.724L135.488 171.472ZM144.96 183.888L145.585 184.669L146.348 184.058L145.755 183.281L144.96 183.888ZM128.576 192.464L128.868 193.42L128.877 193.418L128.576 192.464ZM129.216 181.712H128.216V182.583L129.079 182.703L129.216 181.712ZM129.216 148.176V147.176H128.216V148.176H129.216ZM144.96 148.176H145.96V147.176H144.96V148.176ZM144.96 183.888L144.823 184.879L145.96 185.036V183.888H144.96ZM109.888 194.28C102.998 194.28 96.676 193.188 90.9126 191.016L90.2074 192.888C96.22 195.153 102.784 196.28 109.888 196.28V194.28ZM90.929 191.023C85.2382 188.763 80.2695 185.63 76.0134 181.624L74.6426 183.08C79.0905 187.266 84.2764 190.533 90.191 192.881L90.929 191.023ZM76.0208 181.631C71.7677 177.545 68.4739 172.751 66.1366 167.241L64.2954 168.023C66.7368 173.777 70.1843 178.797 74.6352 183.073L76.0208 181.631ZM66.1366 167.241C63.8041 161.743 62.632 155.734 62.632 149.2H60.632C60.632 155.978 61.8492 162.257 64.2954 168.023L66.1366 167.241ZM62.632 149.2C62.632 142.666 63.8041 136.657 66.1366 131.159L64.2954 130.377C61.8492 136.143 60.632 142.422 60.632 149.2H62.632ZM66.1366 131.159C68.4731 125.651 71.7648 120.903 76.0134 116.904L74.6426 115.448C70.1872 119.641 66.7376 124.621 64.2954 130.377L66.1366 131.159ZM76.0138 116.904C80.3518 112.816 85.4003 109.685 91.1686 107.512L90.4634 105.64C84.4557 107.904 79.1789 111.173 74.6422 115.448L76.0138 116.904ZM91.1804 107.507C96.9405 105.253 103.258 104.12 110.144 104.12V102.12C103.035 102.12 96.4675 103.291 90.4516 105.645L91.1804 107.507ZM110.144 104.12C117.63 104.12 124.325 105.339 130.246 107.758L131.002 105.906C124.806 103.375 117.848 102.12 110.144 102.12V104.12ZM130.25 107.76C136.255 110.178 141.286 113.715 145.359 118.371L146.865 117.053C142.575 112.151 137.281 108.435 130.998 105.904L130.25 107.76ZM145.414 116.996L134.918 127.236L136.314 128.668L146.81 118.428L145.414 116.996ZM136.323 127.245C132.74 123.662 128.83 121.02 124.592 119.342L123.856 121.202C127.81 122.767 131.495 125.245 134.909 128.659L136.323 127.245ZM124.616 119.352C120.467 117.587 115.895 116.712 110.912 116.712V118.712C115.657 118.712 119.959 119.544 123.832 121.192L124.616 119.352ZM110.912 116.712C106.108 116.712 101.633 117.499 97.4984 119.082L98.2136 120.95C102.1 119.461 106.33 118.712 110.912 118.712V116.712ZM97.4984 119.082C93.3693 120.663 89.796 122.91 86.7915 125.826L88.1845 127.262C90.9827 124.546 94.3214 122.44 98.2136 120.95L97.4984 119.082ZM86.7915 125.826C83.791 128.739 81.4546 132.179 79.7828 136.139L81.6252 136.917C83.1961 133.197 85.3823 129.981 88.1845 127.262L86.7915 125.826ZM79.7755 136.157C78.1872 140.127 77.4 144.479 77.4 149.2H79.4C79.4 144.705 80.1488 140.609 81.6325 136.899L79.7755 136.157ZM77.4 149.2C77.4 153.838 78.188 158.147 79.7755 162.115L81.6325 161.373C80.148 157.661 79.4 153.607 79.4 149.2H77.4ZM79.7828 162.133C81.4535 166.09 83.7869 169.569 86.7809 172.563L88.1951 171.149C85.3865 168.34 83.1972 165.078 81.6252 161.355L79.7828 162.133ZM86.7915 172.574C89.7923 175.486 93.3198 177.733 97.3636 179.315L98.0924 177.453C94.2855 175.963 90.9864 173.858 88.1845 171.138L86.7915 172.574ZM97.3636 179.315C101.42 180.902 105.897 181.688 110.784 181.688V179.688C106.113 179.688 101.887 178.938 98.0924 177.453L97.3636 179.315ZM110.784 181.688C115.326 181.688 119.699 180.989 123.9 179.589L123.268 177.691C119.277 179.022 115.117 179.688 110.784 179.688V181.688ZM123.912 179.585C128.232 178.086 132.312 175.624 136.151 172.22L134.825 170.724C131.155 173.976 127.299 176.293 123.256 177.695L123.912 179.585ZM134.693 172.079L144.165 184.495L145.755 183.281L136.283 170.865L134.693 172.079ZM144.335 183.107C139.746 186.778 134.397 189.581 128.275 191.51L128.877 193.418C135.213 191.421 140.787 188.507 145.585 184.669L144.335 183.107ZM128.284 191.508C122.233 193.357 116.102 194.28 109.888 194.28V196.28C116.303 196.28 122.631 195.326 128.868 193.42L128.284 191.508ZM130.216 181.712V148.176H128.216V181.712H130.216ZM129.216 149.176H144.96V147.176H129.216V149.176ZM143.96 148.176V183.888H145.96V148.176H143.96ZM145.097 182.897L129.353 180.721L129.079 182.703L144.823 184.879L145.097 182.897ZM189.563 191.824L189.927 190.893L189.563 191.824ZM174.203 182.224L173.51 182.945L173.518 182.952L174.203 182.224ZM164.091 167.632L163.17 168.023L163.173 168.028L164.091 167.632ZM164.091 130.896L165.009 131.292L165.012 131.287L164.091 130.896ZM174.203 116.304L174.888 117.032L174.896 117.025L174.203 116.304ZM189.563 106.576L189.927 107.507L189.563 106.576ZM227.963 106.576L227.594 107.505L227.599 107.507L227.963 106.576ZM243.323 116.304L242.63 117.025L242.638 117.032L243.323 116.304ZM253.435 130.896L252.514 131.287L252.517 131.292L253.435 130.896ZM253.435 167.632L252.514 167.241L253.435 167.632ZM243.323 182.224L242.638 181.496L243.323 182.224ZM227.963 191.824L227.599 190.893L227.594 190.895L227.963 191.824ZM221.307 178.384L221.678 179.312L221.307 178.384ZM231.291 171.856L231.998 172.563L232.003 172.558L232.009 172.552L231.291 171.856ZM237.819 161.872L236.898 161.483L236.893 161.493L237.819 161.872ZM237.819 136.656L236.891 137.027L236.896 137.04L236.901 137.052L237.819 136.656ZM231.291 126.672L230.573 127.368L230.579 127.374L230.584 127.379L231.291 126.672ZM221.307 120.016L221.678 119.088L221.307 120.016ZM196.219 120.016L195.848 119.087L195.84 119.09L196.219 120.016ZM186.235 126.672L185.528 125.965L186.235 126.672ZM179.579 136.656L178.658 136.267L178.653 136.277L179.579 136.656ZM179.579 161.744L178.651 162.115L178.654 162.124L178.658 162.133L179.579 161.744ZM186.235 171.856L185.517 172.552L185.523 172.558L185.528 172.563L186.235 171.856ZM196.219 178.384L196.59 177.456L196.219 178.384ZM208.891 194.28C202.005 194.28 195.688 193.147 189.927 190.893L189.199 192.755C195.214 195.109 201.782 196.28 208.891 196.28V194.28ZM189.927 190.893C184.151 188.633 179.142 185.499 174.888 181.496L173.518 182.952C177.968 187.141 183.199 190.407 189.199 192.755L189.927 190.893ZM174.896 181.503C170.64 177.414 167.346 172.661 165.009 167.236L163.173 168.028C165.615 173.697 169.062 178.671 173.51 182.945L174.896 181.503ZM165.012 167.241C162.679 161.743 161.507 155.734 161.507 149.2H159.507C159.507 155.978 160.724 162.257 163.17 168.023L165.012 167.241ZM161.507 149.2C161.507 142.666 162.679 136.701 165.009 131.292L163.173 130.5C160.724 136.184 159.507 142.422 159.507 149.2H161.507ZM165.012 131.287C167.348 125.779 170.64 121.031 174.888 117.032L173.518 115.576C169.062 119.769 165.613 124.749 163.17 130.505L165.012 131.287ZM174.896 117.025C179.149 112.939 184.156 109.766 189.927 107.507L189.199 105.645C183.194 107.994 177.961 111.306 173.51 115.583L174.896 117.025ZM189.927 107.507C195.689 105.253 201.964 104.12 208.763 104.12V102.12C201.738 102.12 195.213 103.291 189.199 105.645L189.927 107.507ZM208.763 104.12C215.649 104.12 221.922 105.253 227.594 107.505L228.332 105.647C222.399 103.291 215.871 102.12 208.763 102.12V104.12ZM227.599 107.507C233.37 109.766 238.377 112.939 242.63 117.025L244.016 115.583C239.565 111.306 234.332 107.994 228.327 105.645L227.599 107.507ZM242.638 117.032C246.886 121.031 250.178 125.779 252.514 131.287L254.356 130.505C251.913 124.749 248.464 119.769 244.008 115.576L242.638 117.032ZM252.517 131.292C254.847 136.701 256.019 142.666 256.019 149.2H258.019C258.019 142.422 256.802 136.184 254.353 130.5L252.517 131.292ZM256.019 149.2C256.019 155.734 254.847 161.743 252.514 167.241L254.356 168.023C256.802 162.257 258.019 155.978 258.019 149.2H256.019ZM252.514 167.241C250.178 172.749 246.886 177.497 242.638 181.496L244.008 182.952C248.464 178.759 251.913 173.779 254.356 168.023L252.514 167.241ZM242.638 181.496C238.384 185.499 233.375 188.633 227.599 190.893L228.327 192.755C234.327 190.407 239.558 187.141 244.008 182.952L242.638 181.496ZM227.594 190.895C221.921 193.147 215.69 194.28 208.891 194.28V196.28C215.916 196.28 222.4 195.109 228.332 192.753L227.594 190.895ZM208.763 181.688C213.401 181.688 217.71 180.9 221.678 179.312L220.936 177.456C217.224 178.94 213.17 179.688 208.763 179.688V181.688ZM221.678 179.312C225.639 177.728 229.083 175.479 231.998 172.563L230.584 171.149C227.867 173.865 224.655 175.968 220.936 177.456L221.678 179.312ZM232.009 172.552C234.914 169.559 237.16 166.123 238.745 162.251L236.893 161.493C235.406 165.13 233.3 168.35 230.573 171.16L232.009 172.552ZM238.74 162.261C240.419 158.285 241.251 153.927 241.251 149.2H239.251C239.251 153.689 238.462 157.779 236.898 161.483L238.74 162.261ZM241.251 149.2C241.251 144.473 240.419 140.154 238.737 136.26L236.901 137.052C238.462 140.667 239.251 144.711 239.251 149.2H241.251ZM238.747 136.285C237.163 132.324 234.914 128.88 231.998 125.965L230.584 127.379C233.3 130.096 235.403 133.308 236.891 137.027L238.747 136.285ZM232.009 125.976C229.092 122.971 225.646 120.674 221.678 119.088L220.936 120.944C224.648 122.43 227.858 124.57 230.573 127.368L232.009 125.976ZM221.678 119.088C217.71 117.5 213.401 116.712 208.763 116.712V118.712C213.17 118.712 217.224 119.46 220.936 120.944L221.678 119.088ZM208.763 116.712C204.125 116.712 199.816 117.5 195.848 119.088L196.59 120.944C200.302 119.46 204.356 118.712 208.763 118.712V116.712ZM195.84 119.09C191.961 120.677 188.522 122.971 185.528 125.965L186.942 127.379C189.751 124.571 192.967 122.427 196.598 120.942L195.84 119.09ZM185.528 125.965C182.616 128.876 180.327 132.314 178.658 136.267L180.5 137.045C182.074 133.318 184.222 130.1 186.942 127.379L185.528 125.965ZM178.653 136.277C177.062 140.167 176.275 144.48 176.275 149.2H178.275C178.275 144.704 179.024 140.654 180.505 137.035L178.653 136.277ZM176.275 149.2C176.275 153.838 177.063 158.147 178.651 162.115L180.507 161.373C179.023 157.661 178.275 153.607 178.275 149.2H176.275ZM178.658 162.133C180.326 166.084 182.612 169.559 185.517 172.552L186.953 171.16C184.226 168.35 182.075 165.084 180.5 161.355L178.658 162.133ZM185.528 172.563C188.443 175.479 191.887 177.728 195.848 179.312L196.59 177.456C192.871 175.968 189.659 173.865 186.942 171.149L185.528 172.563ZM195.848 179.312C199.816 180.9 204.125 181.688 208.763 181.688V179.688C204.356 179.688 200.302 178.94 196.59 177.456L195.848 179.312ZM297.313 191.824L297.677 190.893L297.313 191.824ZM281.953 182.224L281.26 182.945L281.268 182.952L281.953 182.224ZM271.841 167.632L270.92 168.023L270.923 168.028L271.841 167.632ZM271.841 130.896L272.759 131.292L272.762 131.287L271.841 130.896ZM281.953 116.304L282.638 117.032L282.646 117.025L281.953 116.304ZM297.313 106.576L297.677 107.507L297.313 106.576ZM335.713 106.576L335.344 107.505L335.349 107.507L335.713 106.576ZM351.073 116.304L350.38 117.025L350.388 117.032L351.073 116.304ZM361.185 130.896L360.264 131.287L360.267 131.292L361.185 130.896ZM361.185 167.632L360.264 167.241L361.185 167.632ZM351.073 182.224L350.388 181.496L351.073 182.224ZM335.713 191.824L335.349 190.893L335.344 190.895L335.713 191.824ZM329.057 178.384L329.428 179.312L329.057 178.384ZM339.041 171.856L339.748 172.563L339.753 172.558L339.759 172.552L339.041 171.856ZM345.569 161.872L344.648 161.483L344.643 161.493L345.569 161.872ZM345.569 136.656L344.641 137.027L344.646 137.04L344.651 137.052L345.569 136.656ZM339.041 126.672L338.323 127.368L338.329 127.374L338.334 127.379L339.041 126.672ZM329.057 120.016L329.428 119.088L329.057 120.016ZM303.969 120.016L303.598 119.087L303.59 119.09L303.969 120.016ZM293.985 126.672L293.278 125.965L293.985 126.672ZM287.329 136.656L286.408 136.267L286.403 136.277L287.329 136.656ZM287.329 161.744L286.401 162.115L286.404 162.124L286.408 162.133L287.329 161.744ZM293.985 171.856L293.267 172.552L293.273 172.558L293.278 172.563L293.985 171.856ZM303.969 178.384L304.34 177.456L303.969 178.384ZM316.641 194.28C309.755 194.28 303.438 193.147 297.677 190.893L296.949 192.755C302.964 195.109 309.532 196.28 316.641 196.28V194.28ZM297.677 190.893C291.901 188.633 286.892 185.499 282.638 181.496L281.268 182.952C285.718 187.141 290.949 190.407 296.949 192.755L297.677 190.893ZM282.646 181.503C278.39 177.414 275.096 172.661 272.759 167.236L270.923 168.028C273.365 173.697 276.812 178.671 281.26 182.945L282.646 181.503ZM272.762 167.241C270.429 161.743 269.257 155.734 269.257 149.2H267.257C267.257 155.978 268.474 162.257 270.92 168.023L272.762 167.241ZM269.257 149.2C269.257 142.666 270.429 136.701 272.759 131.292L270.923 130.5C268.474 136.184 267.257 142.422 267.257 149.2H269.257ZM272.762 131.287C275.098 125.779 278.39 121.031 282.638 117.032L281.268 115.576C276.812 119.769 273.363 124.749 270.92 130.505L272.762 131.287ZM282.646 117.025C286.899 112.939 291.906 109.766 297.677 107.507L296.949 105.645C290.944 107.994 285.711 111.306 281.26 115.583L282.646 117.025ZM297.677 107.507C303.439 105.253 309.714 104.12 316.513 104.12V102.12C309.488 102.12 302.963 103.291 296.949 105.645L297.677 107.507ZM316.513 104.12C323.399 104.12 329.672 105.253 335.344 107.505L336.082 105.647C330.149 103.291 323.621 102.12 316.513 102.12V104.12ZM335.349 107.507C341.12 109.766 346.127 112.939 350.38 117.025L351.766 115.583C347.315 111.306 342.082 107.994 336.077 105.645L335.349 107.507ZM350.388 117.032C354.636 121.031 357.928 125.779 360.264 131.287L362.106 130.505C359.663 124.749 356.214 119.769 351.758 115.576L350.388 117.032ZM360.267 131.292C362.597 136.701 363.769 142.666 363.769 149.2H365.769C365.769 142.422 364.552 136.184 362.103 130.5L360.267 131.292ZM363.769 149.2C363.769 155.734 362.597 161.743 360.264 167.241L362.106 168.023C364.552 162.257 365.769 155.978 365.769 149.2H363.769ZM360.264 167.241C357.928 172.749 354.636 177.497 350.388 181.496L351.758 182.952C356.214 178.759 359.663 173.779 362.106 168.023L360.264 167.241ZM350.388 181.496C346.134 185.499 341.125 188.633 335.349 190.893L336.077 192.755C342.077 190.407 347.308 187.141 351.758 182.952L350.388 181.496ZM335.344 190.895C329.671 193.147 323.44 194.28 316.641 194.28V196.28C323.666 196.28 330.15 195.109 336.082 192.753L335.344 190.895ZM316.513 181.688C321.151 181.688 325.46 180.9 329.428 179.312L328.686 177.456C324.974 178.94 320.92 179.688 316.513 179.688V181.688ZM329.428 179.312C333.389 177.728 336.833 175.479 339.748 172.563L338.334 171.149C335.617 173.865 332.405 175.968 328.686 177.456L329.428 179.312ZM339.759 172.552C342.664 169.559 344.91 166.123 346.495 162.251L344.643 161.493C343.156 165.13 341.05 168.35 338.323 171.16L339.759 172.552ZM346.49 162.261C348.169 158.285 349.001 153.927 349.001 149.2H347.001C347.001 153.689 346.212 157.779 344.648 161.483L346.49 162.261ZM349.001 149.2C349.001 144.473 348.169 140.154 346.487 136.26L344.651 137.052C346.212 140.667 347.001 144.711 347.001 149.2H349.001ZM346.497 136.285C344.913 132.324 342.664 128.88 339.748 125.965L338.334 127.379C341.05 130.096 343.153 133.308 344.641 137.027L346.497 136.285ZM339.759 125.976C336.842 122.971 333.396 120.674 329.428 119.088L328.686 120.944C332.398 122.43 335.608 124.57 338.323 127.368L339.759 125.976ZM329.428 119.088C325.46 117.5 321.151 116.712 316.513 116.712V118.712C320.92 118.712 324.974 119.46 328.686 120.944L329.428 119.088ZM316.513 116.712C311.875 116.712 307.566 117.5 303.598 119.088L304.34 120.944C308.052 119.46 312.106 118.712 316.513 118.712V116.712ZM303.59 119.09C299.711 120.677 296.272 122.971 293.278 125.965L294.692 127.379C297.501 124.571 300.717 122.427 304.348 120.942L303.59 119.09ZM293.278 125.965C290.366 128.876 288.077 132.314 286.408 136.267L288.25 137.045C289.824 133.318 291.972 130.1 294.692 127.379L293.278 125.965ZM286.403 136.277C284.812 140.167 284.025 144.48 284.025 149.2H286.025C286.025 144.704 286.774 140.654 288.255 137.035L286.403 136.277ZM284.025 149.2C284.025 153.838 284.813 158.147 286.401 162.115L288.257 161.373C286.773 157.661 286.025 153.607 286.025 149.2H284.025ZM286.408 162.133C288.076 166.084 290.362 169.559 293.267 172.552L294.703 171.16C291.976 168.35 289.825 165.084 288.25 161.355L286.408 162.133ZM293.278 172.563C296.193 175.479 299.637 177.728 303.598 179.312L304.34 177.456C300.621 175.968 297.409 173.865 294.692 171.149L293.278 172.563ZM303.598 179.312C307.566 180.9 311.875 181.688 316.513 181.688V179.688C312.106 179.688 308.052 178.94 304.34 177.456L303.598 179.312ZM382.407 194H381.407V195H382.407V194ZM382.407 104.4V103.4H381.407V104.4H382.407ZM447.175 110.032L446.72 110.922L447.175 110.032ZM464.327 125.648L463.475 126.172L464.327 125.648ZM464.327 172.752L465.179 173.276L465.182 173.271L464.327 172.752ZM399.047 179.92H398.047V180.92H399.047V179.92ZM438.215 176.08L437.756 175.192L437.749 175.195L438.215 176.08ZM449.607 165.328L448.747 164.818L448.74 164.83L449.607 165.328ZM449.607 133.072L448.74 133.57L448.745 133.579L448.751 133.589L449.607 133.072ZM438.215 122.32L437.749 123.205L437.756 123.208L438.215 122.32ZM399.047 118.48V117.48H398.047V118.48H399.047ZM383.407 194V104.4H381.407V194H383.407ZM382.407 105.4H421.575V103.4H382.407V105.4ZM421.575 105.4C431.173 105.4 439.545 107.252 446.72 110.922L447.63 109.142C440.128 105.303 431.433 103.4 421.575 103.4V105.4ZM446.72 110.922C453.904 114.598 459.481 119.681 463.475 126.172L465.179 125.124C460.981 118.303 455.123 112.975 447.63 109.142L446.72 110.922ZM463.475 126.172C467.46 132.647 469.471 140.31 469.471 149.2H471.471C471.471 139.999 469.386 131.961 465.179 125.124L463.475 126.172ZM469.471 149.2C469.471 158.002 467.461 165.668 463.472 172.233L465.182 173.271C469.385 166.353 471.471 158.318 471.471 149.2H469.471ZM463.475 172.228C459.481 178.719 453.904 183.802 446.72 187.478L447.63 189.258C455.123 185.425 460.981 180.097 465.179 173.276L463.475 172.228ZM446.72 187.478C439.545 191.148 431.173 193 421.575 193V195C431.433 195 440.128 193.097 447.63 189.258L446.72 187.478ZM421.575 193H382.407V195H421.575V193ZM399.047 180.92H420.807V178.92H399.047V180.92ZM420.807 180.92C427.674 180.92 433.644 179.616 438.681 176.965L437.749 175.195C433.058 177.664 427.422 178.92 420.807 178.92V180.92ZM438.674 176.968C443.786 174.324 447.729 170.609 450.474 165.826L448.74 164.83C446.195 169.263 442.543 172.716 437.756 175.192L438.674 176.968ZM450.467 165.838C453.302 161.054 454.703 155.497 454.703 149.2H452.703C452.703 155.191 451.373 160.386 448.747 164.818L450.467 165.838ZM454.703 149.2C454.703 142.821 453.304 137.26 450.463 132.555L448.751 133.589C451.372 137.93 452.703 143.12 452.703 149.2H454.703ZM450.474 132.574C447.729 127.791 443.786 124.076 438.674 121.432L437.756 123.208C442.543 125.684 446.195 129.137 448.74 133.57L450.474 132.574ZM438.681 121.435C433.644 118.784 427.674 117.48 420.807 117.48V119.48C427.422 119.48 433.058 120.736 437.749 123.205L438.681 121.435ZM420.807 117.48H399.047V119.48H420.807V117.48ZM398.047 118.48V179.92H400.047V118.48H398.047Z" fill="#034D8E"/>
</g>
<g filter="url(#filter1_i_89_3)">
<path d="M514.032 162V72.4H530.672V147.92H577.52V162H514.032Z" fill="#D8222E"/>
</g>
<g filter="url(#filter2_i_89_3)">
<path d="M579.392 109.648H623.936V123.344H579.392V109.648ZM580.672 148.048H631.232V162H564.032V72.4H629.44V86.352H580.672V148.048Z" fill="#D8222E"/>
</g>
<path d="M579.392 109.648V108.648H578.392V109.648H579.392ZM623.936 109.648H624.936V108.648H623.936V109.648ZM623.936 123.344V124.344H624.936V123.344H623.936ZM579.392 123.344H578.392V124.344H579.392V123.344ZM580.672 148.048H579.672V149.048H580.672V148.048ZM631.232 148.048H632.232V147.048H631.232V148.048ZM631.232 162V163H632.232V162H631.232ZM564.032 162H563.032V163H564.032V162ZM564.032 72.4V71.4H563.032V72.4H564.032ZM629.44 72.4H630.44V71.4H629.44V72.4ZM629.44 86.352V87.352H630.44V86.352H629.44ZM580.672 86.352V85.352H579.672V86.352H580.672ZM579.392 110.648H623.936V108.648H579.392V110.648ZM622.936 109.648V123.344H624.936V109.648H622.936ZM623.936 122.344H579.392V124.344H623.936V122.344ZM580.392 123.344V109.648H578.392V123.344H580.392ZM580.672 149.048H631.232V147.048H580.672V149.048ZM630.232 148.048V162H632.232V148.048H630.232ZM631.232 161H564.032V163H631.232V161ZM565.032 162V72.4H563.032V162H565.032ZM564.032 73.4H629.44V71.4H564.032V73.4ZM628.44 72.4V86.352H630.44V72.4H628.44ZM629.44 85.352H580.672V87.352H629.44V85.352ZM579.672 86.352V148.048H581.672V86.352H579.672Z" fill="#D8222E"/>
<rect x="562" y="70" width="22" height="96" fill="#F3F3F3"/>
<rect x="607" y="92" width="22" height="26" transform="rotate(-90 607 92)" fill="#F3F3F3"/>
<rect x="352" y="3" width="6" height="25" fill="#FDFDFD"/>
<defs>
<filter id="filter0_di_89_3" x="61.6318" y="103.12" width="417.839" height="100.16" filterUnits="userSpaceOnUse" color-interpolation-filters="sRGB">
<feFlood flood-opacity="0" result="BackgroundImageFix"/>
<feColorMatrix in="SourceAlpha" type="matrix" values="0 0 0 0 0 0 0 0 0 0 0 0 0 0 0 0 0 0 127 0" result="hardAlpha"/>
<feOffset dx="5" dy="4"/>
<feGaussianBlur stdDeviation="2"/>
<feComposite in2="hardAlpha" operator="out"/>
<feColorMatrix type="matrix" values="0 0 0 0 0 0 0 0 0 0 0 0 0 0 0 0 0 0 0.25 0"/>
<feBlend mode="normal" in2="BackgroundImageFix" result="effect1_dropShadow_89_3"/>
<feBlend mode="normal" in="SourceGraphic" in2="effect1_dropShadow_89_3" result="shape"/>
<feColorMatrix in="SourceAlpha" type="matrix" values="0 0 0 0 0 0 0 0 0 0 0 0 0 0 0 0 0 0 127 0" result="hardAlpha"/>
<feOffset dx="5" dy="3"/>
<feGaussianBlur stdDeviation="2"/>
<feComposite in2="hardAlpha" operator="arithmetic" k2="-1" k3="1"/>
<feColorMatrix type="matrix" values="0 0 0 0 0 0 0 0 0 0 0 0 0 0 0 0 0 0 0.25 0"/>
<feBlend mode="normal" in2="shape" result="effect2_innerShadow_89_3"/>
</filter>
<filter id="filter1_i_89_3" x="514.031" y="72.4" width="67.4883" height="92.6" filterUnits="userSpaceOnUse" color-interpolation-filters="sRGB">
<feFlood flood-opacity="0" result="BackgroundImageFix"/>
<feBlend mode="normal" in="SourceGraphic" in2="BackgroundImageFix" result="shape"/>
<feColorMatrix in="SourceAlpha" type="matrix" values="0 0 0 0 0 0 0 0 0 0 0 0 0 0 0 0 0 0 127 0" result="hardAlpha"/>
<feOffset dx="5" dy="3"/>
<feGaussianBlur stdDeviation="2"/>
<feComposite in2="hardAlpha" operator="arithmetic" k2="-1" k3="1"/>
<feColorMatrix type="matrix" values="0 0 0 0 0 0 0 0 0 0 0 0 0 0 0 0 0 0 0.25 0"/>
<feBlend mode="normal" in2="shape" result="effect1_innerShadow_89_3"/>
</filter>
<filter id="filter2_i_89_3" x="564.031" y="72.4" width="71.2012" height="92.6" filterUnits="userSpaceOnUse" color-interpolation-filters="sRGB">
<feFlood flood-opacity="0" result="BackgroundImageFix"/>
<feBlend mode="normal" in="SourceGraphic" in2="BackgroundImageFix" result="shape"/>
<feColorMatrix in="SourceAlpha" type="matrix" values="0 0 0 0 0 0 0 0 0 0 0 0 0 0 0 0 0 0 127 0" result="hardAlpha"/>
<feOffset dx="5" dy="3"/>
<feGaussianBlur stdDeviation="2"/>
<feComposite in2="hardAlpha" operator="arithmetic" k2="-1" k3="1"/>
<feColorMatrix type="matrix" values="0 0 0 0 0 0 0 0 0 0 0 0 0 0 0 0 0 0 0.25 0"/>
<feBlend mode="normal" in2="shape" result="effect1_innerShadow_89_3"/>
</filter>
</defs>
</svg>
