<?xml version="1.0" encoding="utf-8"?>
<!-- Generator: Adobe Illustrator 24.1.1, SVG Export Plug-In . SVG Version: 6.00 Build 0)  -->
<svg version="1.1" id="Слой_1" xmlns="http://www.w3.org/2000/svg" xmlns:xlink="http://www.w3.org/1999/xlink" x="0px" y="0px"
	 viewBox="0 0 652 232" style="enable-background:new 0 0 652 232;" xml:space="preserve">
<style type="text/css">
	.st0{fill:#FF3643;stroke:#FFFFFF;}
	.st1{fill:#95171F;stroke:#FFFFFF;}
	.st2{fill:#D8222E;stroke:#FFFFFF;}
	.st3{fill:#0068C2;stroke:#FFFFFF;}
	.st4{fill:#003869;stroke:#FFFFFF;}
	.st5{fill:#034D8E;stroke:#FFFFFF;}
	.st6{fill:#FFFFFF;}
	.st7{fill:#D8222E;}
	.st8{fill:#FF3643;}
</style>
<rect x="156.5" y="2.5" class="st0" width="288" height="26"/>
<path class="st0" d="M354,28.5V2h252.1L650,29L354,28.5z"/>
<path class="st1" d="M184,29L156,2v27H184z"/>
<rect x="420.5" y="29.5" class="st2" width="229" height="173"/>
<path class="st3" d="M38,65L2,29h450.5L495,65H38z"/>
<path class="st4" d="M38,65L2,29v162l36,39V65z"/>
<rect x="38.5" y="65.5" class="st5" width="457" height="164"/>
<g>
	<path class="st6" d="M109.9,195.3c-7,0-13.4-1.1-19.3-3.3c-5.8-2.3-10.9-5.5-15.2-9.6c-4.4-4.2-7.7-9.1-10.1-14.7
		c-2.4-5.6-3.6-11.8-3.6-18.4c0-6.7,1.2-12.8,3.6-18.4c2.4-5.6,5.8-10.5,10.1-14.6c4.4-4.2,9.6-7.4,15.5-9.6
		c5.9-2.3,12.3-3.5,19.3-3.5c7.6,0,14.4,1.2,20.5,3.7c6.1,2.5,11.3,6.1,15.5,10.9L135.6,128c-3.5-3.5-7.3-6.1-11.4-7.7
		c-4-1.7-8.4-2.6-13.3-2.6c-4.7,0-9,0.8-13.1,2.3c-4,1.5-7.5,3.7-10.4,6.5s-5.2,6.1-6.8,10c-1.5,3.8-2.3,8.1-2.3,12.7
		c0,4.5,0.8,8.7,2.3,12.5c1.6,3.8,3.9,7.2,6.8,10.1c2.9,2.8,6.3,5,10.2,6.5c3.9,1.5,8.3,2.3,13.1,2.3c4.4,0,8.7-0.7,12.8-2
		c4.2-1.5,8.1-3.8,11.9-7.2l9.5,12.4c-4.7,3.8-10.2,6.6-16.4,8.6C122.4,194.3,116.2,195.3,109.9,195.3z M129.2,181.7v-33.5H145v35.7
		L129.2,181.7z M208.9,195.3c-7,0-13.4-1.2-19.3-3.5s-11-5.5-15.4-9.6c-4.4-4.2-7.7-9-10.1-14.6c-2.4-5.6-3.6-11.8-3.6-18.4
		c0-6.7,1.2-12.8,3.6-18.3c2.4-5.6,5.8-10.5,10.1-14.6c4.4-4.2,9.5-7.4,15.4-9.7c5.9-2.3,12.3-3.5,19.2-3.5c7,0,13.4,1.2,19.2,3.5
		c5.9,2.3,11,5.5,15.4,9.7c4.4,4.1,7.7,9,10.1,14.6c2.4,5.5,3.6,11.6,3.6,18.3c0,6.7-1.2,12.8-3.6,18.4c-2.4,5.6-5.8,10.5-10.1,14.6
		c-4.4,4.1-9.5,7.3-15.4,9.6C222.2,194.1,215.8,195.3,208.9,195.3z M208.8,180.7c4.5,0,8.7-0.8,12.5-2.3c3.8-1.5,7.2-3.7,10-6.5
		c2.8-2.9,5-6.2,6.5-10c1.6-3.8,2.4-8.1,2.4-12.7s-0.8-8.8-2.4-12.5c-1.5-3.8-3.7-7.2-6.5-10c-2.8-2.9-6.1-5.1-10-6.7
		c-3.8-1.5-8-2.3-12.5-2.3s-8.7,0.8-12.5,2.3c-3.8,1.5-7.1,3.8-10,6.7c-2.8,2.8-5,6.1-6.7,10c-1.5,3.8-2.3,7.9-2.3,12.5
		c0,4.5,0.8,8.7,2.3,12.5c1.6,3.8,3.8,7.2,6.7,10.1c2.8,2.8,6.1,5,10,6.5C200.1,179.9,204.2,180.7,208.8,180.7z M316.6,195.3
		c-7,0-13.4-1.2-19.3-3.5s-11-5.5-15.4-9.6c-4.4-4.2-7.7-9-10.1-14.6c-2.4-5.6-3.6-11.8-3.6-18.4c0-6.7,1.2-12.8,3.6-18.3
		c2.4-5.6,5.8-10.5,10.1-14.6c4.4-4.2,9.5-7.4,15.4-9.7c5.9-2.3,12.3-3.5,19.2-3.5c7,0,13.4,1.2,19.2,3.5c5.9,2.3,11,5.5,15.4,9.7
		c4.4,4.1,7.7,9,10.1,14.6c2.4,5.5,3.6,11.6,3.6,18.3c0,6.7-1.2,12.8-3.6,18.4s-5.8,10.5-10.1,14.6c-4.4,4.1-9.5,7.3-15.4,9.6
		C329.9,194.1,323.6,195.3,316.6,195.3z M316.5,180.7c4.5,0,8.7-0.8,12.5-2.3s7.2-3.7,10-6.5c2.8-2.9,5-6.2,6.5-10
		c1.6-3.8,2.4-8.1,2.4-12.7s-0.8-8.8-2.4-12.5c-1.5-3.8-3.7-7.2-6.5-10c-2.8-2.9-6.1-5.1-10-6.7c-3.8-1.5-8-2.3-12.5-2.3
		s-8.7,0.8-12.5,2.3c-3.8,1.5-7.1,3.8-10,6.7c-2.8,2.8-5,6.1-6.7,10c-1.5,3.8-2.3,7.9-2.3,12.5c0,4.5,0.8,8.7,2.3,12.5
		c1.6,3.8,3.8,7.2,6.7,10.1c2.8,2.8,6.1,5,10,6.5S312,180.7,316.5,180.7z M382.4,194v-89.6h39.2c9.7,0,18.3,1.9,25.6,5.6
		c7.3,3.8,13.1,9,17.2,15.6c4.1,6.7,6.1,14.5,6.1,23.6c0,9-2,16.8-6.1,23.6c-4.1,6.7-9.8,11.9-17.2,15.6c-7.3,3.8-15.9,5.6-25.6,5.6
		H382.4z M399,179.9h21.8c6.7,0,12.5-1.3,17.4-3.8c4.9-2.6,8.7-6.1,11.4-10.8c2.7-4.6,4.1-10,4.1-16.1c0-6.2-1.4-11.6-4.1-16.1
		c-2.6-4.6-6.4-8.2-11.4-10.8c-4.9-2.6-10.7-3.8-17.4-3.8H399V179.9z"/>
</g>
<g>
	<path class="st6" d="M514,162V72.4h16.6v75.5h46.8V162H514z"/>
</g>
<g>
	<path class="st6" d="M579.4,109.6h44.5v13.7h-44.5V109.6z M580.7,148h50.6v14H564V72.4h65.4v14h-48.8V148z"/>
</g>
<rect x="562.7" y="70.2" class="st7" width="19.3" height="93.2"/>
<rect x="352" y="3" class="st8" width="7" height="25"/>
<rect x="605.2" y="69.4" class="st7" width="29.6" height="20.4"/>
</svg>
